<svg xmlns="http://www.w3.org/2000/svg" width="59" height="59" fill="none" viewBox="0 0 59 59"><g clip-path="url(#clip0_2_94)"><path stroke="#D1B06B" stroke-width="2" d="M1.80212 8.75268V50.2474C1.80212 54.3205 4.93613 57.6224 8.80212 57.6224H35.0624C38.9284 57.6224 42.0624 54.3205 42.0624 50.2474V16.8949C42.0624 14.801 41.2175 12.8057 39.7386 11.4069L31.1299 3.26468C29.8453 2.04972 28.1799 1.37769 26.4537 1.37769H8.80212C4.93613 1.37769 1.80212 4.67958 1.80212 8.75268Z"/><path stroke="#D1B06B" stroke-width="2" d="M53.1747 3.54082L49.3299 12.4807C49.1536 12.8904 49.0624 13.3352 49.0624 13.7851V53.6615C49.0624 54.8253 49.9579 55.7687 51.0624 55.7687H56.1978C57.3024 55.7687 58.1978 54.8253 58.1978 53.6615V13.7851C58.1978 13.3352 58.1066 12.8904 57.9304 12.4807L54.0855 3.54082C53.9081 3.12832 53.3521 3.12832 53.1747 3.54082Z"/><path stroke="#D1B06B" stroke-width="2" d="M49.4453 15.4255H54.6726H58.7382"/><path fill="#D1B06B" d="M35.0538 26.0176H8.94104C8.2855 26.0176 7.75409 26.568 7.75409 27.2469C7.75409 27.9259 8.2855 28.4762 8.94104 28.4762H35.0538C35.7093 28.4762 36.2407 27.9259 36.2407 27.2469C36.2407 26.568 35.7093 26.0176 35.0538 26.0176Z"/><path stroke="#D1B06B" stroke-width="2" d="M17.9279 8.98267H10.6365C9.79381 8.98267 9.11066 9.69022 9.11066 10.563V15.6561C9.11066 16.5289 9.79381 17.2365 10.6365 17.2365H17.9279C18.7706 17.2365 19.4538 16.5289 19.4538 15.6561V10.563C19.4538 9.69022 18.7706 8.98267 17.9279 8.98267Z"/><path fill="#D1B06B" d="M35.0538 38.3112H8.94104C8.2855 38.3112 7.75409 38.8615 7.75409 39.5405C7.75409 40.2194 8.2855 40.7698 8.94104 40.7698H35.0538C35.7093 40.7698 36.2407 40.2194 36.2407 39.5405C36.2407 38.8615 35.7093 38.3112 35.0538 38.3112Z"/><path fill="#D1B06B" d="M24.3713 44.4576H8.94104C8.2855 44.4576 7.75409 45.008 7.75409 45.687C7.75409 46.3659 8.2855 46.9163 8.94104 46.9163H24.3713C25.0268 46.9163 25.5583 46.3659 25.5583 45.687C25.5583 45.008 25.0268 44.4576 24.3713 44.4576Z"/><path fill="#D1B06B" d="M35.0538 32.1643H8.94104C8.2855 32.1643 7.75409 32.7147 7.75409 33.3936C7.75409 34.0726 8.2855 34.623 8.94104 34.623H35.0538C35.7093 34.623 36.2407 34.0726 36.2407 33.3936C36.2407 32.7147 35.7093 32.1643 35.0538 32.1643Z"/><path stroke="#D1B06B" stroke-width="2" d="M49.4453 52.0264H58.7382"/><path stroke="#D1B06B" stroke-linecap="round" stroke-width="2" d="M27.2309 1.65967V11.8495C27.2309 14.177 29.0527 16.0638 31.2999 16.0638H41.787"/></g><defs><clipPath id="clip0_2_94"><rect width="59" height="59" fill="white" transform="translate(0.802124 0.377686)"/></clipPath></defs></svg>